<?xml version="1.0" encoding="UTF-8" standalone="no"?>
<!DOCTYPE svg PUBLIC "-//W3C//DTD SVG 20010904//EN"
              "http://www.w3.org/TR/2001/REC-SVG-20010904/DTD/svg10.dtd">

<svg xmlns="http://www.w3.org/2000/svg"
     width="2.78667in" height="2.68667in"
     viewBox="0 0 836 806">
  <path id="Selection"
        fill="white" stroke="none" stroke-width="1"
        d="M 48.00,125.00
           C 48.00,125.00 635.00,125.00 635.00,125.00
             635.00,125.00 47.00,713.00 47.00,713.00
             47.00,713.00 65.00,732.00 65.00,732.00
             65.00,732.00 96.00,763.00 96.00,763.00
             96.00,763.00 107.00,773.94 107.00,773.94
             107.00,773.94 113.00,776.66 113.00,776.66
             113.00,776.66 125.00,765.00 125.00,765.00
             125.00,765.00 156.00,734.00 156.00,734.00
             156.00,734.00 272.00,618.00 272.00,618.00
             272.00,618.00 700.00,190.00 700.00,190.00
             700.00,190.00 700.00,778.00 700.00,778.00
             700.00,778.00 725.00,754.00 725.00,754.00
             725.00,754.00 770.00,709.00 770.00,709.00
             770.00,709.00 784.00,695.00 784.00,695.00
             784.00,695.00 791.40,686.00 791.40,686.00
             791.40,686.00 792.00,679.00 792.00,679.00
             792.00,679.00 792.00,32.00 792.00,32.00
             792.00,32.00 147.00,32.00 147.00,32.00
             147.00,32.00 140.00,32.60 140.00,32.60
             140.00,32.60 131.00,40.00 131.00,40.00
             131.00,40.00 117.00,54.00 117.00,54.00
             117.00,54.00 66.91,105.00 66.91,105.00
             66.91,105.00 48.00,125.00 48.00,125.00 Z" />
</svg>
